<?xml version="1.0" encoding="UTF-8"?>
<!--Generator: Apple Native CoreSVG 326-->
<!DOCTYPE svg
PUBLIC "-//W3C//DTD SVG 1.1//EN"
       "http://www.w3.org/Graphics/SVG/1.1/DTD/svg11.dtd">
<svg version="1.1" xmlns="http://www.w3.org/2000/svg" xmlns:xlink="http://www.w3.org/1999/xlink" viewBox="0 0 16.9541 18.167">
 <g>
  <rect height="18.167" opacity="0" width="16.9541" x="0" y="0"/>
  <path d="M0 13.9131C0 14.5547 0.492188 14.9766 1.32715 14.9766L5.03613 14.9766C5.10645 16.6729 6.43359 18.1582 8.28809 18.1582C10.1514 18.1582 11.4785 16.6816 11.5488 14.9766L15.2578 14.9766C16.084 14.9766 16.585 14.5547 16.585 13.9131C16.585 13.0342 15.6885 12.2432 14.9326 11.4609C14.3525 10.8545 14.1943 9.60645 14.124 8.5957C14.0625 5.13281 13.166 2.90039 10.8281 2.05664C10.5293 0.905273 9.58887 0 8.28809 0C6.99609 0 6.04688 0.905273 5.75684 2.05664C3.41895 2.90039 2.52246 5.13281 2.46094 8.5957C2.39062 9.60645 2.23242 10.8545 1.65234 11.4609C0.887695 12.2432 0 13.0342 0 13.9131ZM1.70508 13.6494L1.70508 13.5439C1.86328 13.2891 2.39062 12.7705 2.84766 12.2607C3.48047 11.5576 3.7793 10.4238 3.8584 8.70996C3.92871 4.86914 5.07129 3.64746 6.57422 3.23438C6.79395 3.18164 6.91699 3.07617 6.92578 2.84766C6.95215 1.93359 7.47949 1.29199 8.28809 1.29199C9.10547 1.29199 9.62402 1.93359 9.65918 2.84766C9.66797 3.07617 9.78223 3.18164 10.002 3.23438C11.5137 3.64746 12.6562 4.86914 12.7266 8.70996C12.8057 10.4238 13.1045 11.5576 13.7285 12.2607C14.1943 12.7705 14.7129 13.2891 14.8711 13.5439L14.8711 13.6494ZM6.40723 14.9766L10.1777 14.9766C10.1074 16.1719 9.35156 16.9189 8.28809 16.9189C7.2334 16.9189 6.46875 16.1719 6.40723 14.9766Z" fill="white" fill-opacity="0.85"/>
 </g>
</svg>
