<?xml version="1.0" encoding="UTF-8"?>
<!--Generator: Apple Native CoreSVG 326-->
<!DOCTYPE svg
PUBLIC "-//W3C//DTD SVG 1.1//EN"
       "http://www.w3.org/Graphics/SVG/1.1/DTD/svg11.dtd">
<svg version="1.1" xmlns="http://www.w3.org/2000/svg" xmlns:xlink="http://www.w3.org/1999/xlink" viewBox="0 0 17.8857 16.1982">
 <g>
  <rect height="16.1982" opacity="0" width="17.8857" x="0" y="0"/>
  <path d="M2.75977 16.1982L14.7656 16.1982C16.6025 16.1982 17.5166 15.2842 17.5166 13.4736L17.5166 2.74219C17.5166 0.931641 16.6025 0.0175781 14.7656 0.0175781L2.75977 0.0175781C0.922852 0.0175781 0 0.922852 0 2.74219L0 13.4736C0 15.293 0.922852 16.1982 2.75977 16.1982ZM2.62793 14.7832C1.8457 14.7832 1.41504 14.3701 1.41504 13.5527L1.41504 5.26465C1.41504 4.45605 1.8457 4.03418 2.62793 4.03418L14.8799 4.03418C15.6621 4.03418 16.1016 4.45605 16.1016 5.26465L16.1016 13.5527C16.1016 14.3701 15.6621 14.7832 14.8799 14.7832ZM7.04883 7.18945L7.56738 7.18945C7.875 7.18945 7.97168 7.10156 7.97168 6.79395L7.97168 6.27539C7.97168 5.96777 7.875 5.87109 7.56738 5.87109L7.04883 5.87109C6.74121 5.87109 6.63574 5.96777 6.63574 6.27539L6.63574 6.79395C6.63574 7.10156 6.74121 7.18945 7.04883 7.18945ZM9.9668 7.18945L10.4854 7.18945C10.793 7.18945 10.8984 7.10156 10.8984 6.79395L10.8984 6.27539C10.8984 5.96777 10.793 5.87109 10.4854 5.87109L9.9668 5.87109C9.65918 5.87109 9.55371 5.96777 9.55371 6.27539L9.55371 6.79395C9.55371 7.10156 9.65918 7.18945 9.9668 7.18945ZM12.8848 7.18945L13.4033 7.18945C13.7109 7.18945 13.8164 7.10156 13.8164 6.79395L13.8164 6.27539C13.8164 5.96777 13.7109 5.87109 13.4033 5.87109L12.8848 5.87109C12.5771 5.87109 12.4805 5.96777 12.4805 6.27539L12.4805 6.79395C12.4805 7.10156 12.5771 7.18945 12.8848 7.18945ZM4.13086 10.0635L4.64062 10.0635C4.95703 10.0635 5.05371 9.97559 5.05371 9.66797L5.05371 9.14941C5.05371 8.8418 4.95703 8.75391 4.64062 8.75391L4.13086 8.75391C3.81445 8.75391 3.71777 8.8418 3.71777 9.14941L3.71777 9.66797C3.71777 9.97559 3.81445 10.0635 4.13086 10.0635ZM7.04883 10.0635L7.56738 10.0635C7.875 10.0635 7.97168 9.97559 7.97168 9.66797L7.97168 9.14941C7.97168 8.8418 7.875 8.75391 7.56738 8.75391L7.04883 8.75391C6.74121 8.75391 6.63574 8.8418 6.63574 9.14941L6.63574 9.66797C6.63574 9.97559 6.74121 10.0635 7.04883 10.0635ZM9.9668 10.0635L10.4854 10.0635C10.793 10.0635 10.8984 9.97559 10.8984 9.66797L10.8984 9.14941C10.8984 8.8418 10.793 8.75391 10.4854 8.75391L9.9668 8.75391C9.65918 8.75391 9.55371 8.8418 9.55371 9.14941L9.55371 9.66797C9.55371 9.97559 9.65918 10.0635 9.9668 10.0635ZM12.8848 10.0635L13.4033 10.0635C13.7109 10.0635 13.8164 9.97559 13.8164 9.66797L13.8164 9.14941C13.8164 8.8418 13.7109 8.75391 13.4033 8.75391L12.8848 8.75391C12.5771 8.75391 12.4805 8.8418 12.4805 9.14941L12.4805 9.66797C12.4805 9.97559 12.5771 10.0635 12.8848 10.0635ZM4.13086 12.9463L4.64062 12.9463C4.95703 12.9463 5.05371 12.8496 5.05371 12.542L5.05371 12.0234C5.05371 11.7158 4.95703 11.6279 4.64062 11.6279L4.13086 11.6279C3.81445 11.6279 3.71777 11.7158 3.71777 12.0234L3.71777 12.542C3.71777 12.8496 3.81445 12.9463 4.13086 12.9463ZM7.04883 12.9463L7.56738 12.9463C7.875 12.9463 7.97168 12.8496 7.97168 12.542L7.97168 12.0234C7.97168 11.7158 7.875 11.6279 7.56738 11.6279L7.04883 11.6279C6.74121 11.6279 6.63574 11.7158 6.63574 12.0234L6.63574 12.542C6.63574 12.8496 6.74121 12.9463 7.04883 12.9463ZM9.9668 12.9463L10.4854 12.9463C10.793 12.9463 10.8984 12.8496 10.8984 12.542L10.8984 12.0234C10.8984 11.7158 10.793 11.6279 10.4854 11.6279L9.9668 11.6279C9.65918 11.6279 9.55371 11.7158 9.55371 12.0234L9.55371 12.542C9.55371 12.8496 9.65918 12.9463 9.9668 12.9463Z" fill="white" fill-opacity="0.85"/>
 </g>
</svg>
