<?xml version="1.0" encoding="UTF-8"?>
<!--Generator: Apple Native CoreSVG 326-->
<!DOCTYPE svg
PUBLIC "-//W3C//DTD SVG 1.1//EN"
       "http://www.w3.org/Graphics/SVG/1.1/DTD/svg11.dtd">
<svg version="1.1" xmlns="http://www.w3.org/2000/svg" xmlns:xlink="http://www.w3.org/1999/xlink" viewBox="0 0 18.2988 17.9385">
 <g>
  <rect height="17.9385" opacity="0" width="18.2988" x="0" y="0"/>
  <path d="M17.9297 8.96484C17.9297 13.9043 13.9131 17.9297 8.96484 17.9297C4.02539 17.9297 0 13.9043 0 8.96484C0 4.0166 4.02539 0 8.96484 0C13.9131 0 17.9297 4.0166 17.9297 8.96484ZM11.6982 5.47559L7.94531 11.5049L6.16113 9.20215C5.94141 8.91211 5.74805 8.83301 5.49316 8.83301C5.09766 8.83301 4.79004 9.1582 4.79004 9.55371C4.79004 9.75586 4.86914 9.94922 5.00098 10.125L7.20703 12.832C7.43555 13.1396 7.68164 13.2627 7.98047 13.2627C8.2793 13.2627 8.53418 13.1221 8.71875 12.832L12.8496 6.32812C12.9551 6.14355 13.0693 5.94141 13.0693 5.74805C13.0693 5.33496 12.709 5.07129 12.3223 5.07129C12.0938 5.07129 11.8652 5.21191 11.6982 5.47559Z" fill="white" fill-opacity="0.85"/>
 </g>
</svg>
