<?xml version="1.0" encoding="UTF-8"?>
<!--Generator: Apple Native CoreSVG 326-->
<!DOCTYPE svg
PUBLIC "-//W3C//DTD SVG 1.1//EN"
       "http://www.w3.org/Graphics/SVG/1.1/DTD/svg11.dtd">
<svg version="1.1" xmlns="http://www.w3.org/2000/svg" xmlns:xlink="http://www.w3.org/1999/xlink" viewBox="0 0 4.7373 15.7236">
 <g>
  <rect height="15.7236" opacity="0" width="4.7373" x="0" y="0"/>
  <path d="M1.66113 15.1084L4.0166 9.11426C4.1748 8.70996 4.36816 8.21777 4.36816 7.83105C4.36816 7.44434 4.1748 6.95215 4.0166 6.54785L1.66113 0.553711C1.5293 0.210938 1.23047 0 0.905273 0C0.386719 0 0 0.37793 0 0.887695C0 1.14258 0.149414 1.49414 0.228516 1.72266L2.87402 8.45508L2.87402 7.20703L0.228516 13.9395C0.149414 14.168 0 14.5107 0 14.7744C0 15.293 0.386719 15.6709 0.905273 15.6709C1.23047 15.6709 1.5293 15.4512 1.66113 15.1084Z" fill="white" fill-opacity="0.85"/>
 </g>
</svg>
