<?xml version="1.0" encoding="UTF-8"?>
<!--Generator: Apple Native CoreSVG 326-->
<!DOCTYPE svg
PUBLIC "-//W3C//DTD SVG 1.1//EN"
       "http://www.w3.org/Graphics/SVG/1.1/DTD/svg11.dtd">
<svg version="1.1" xmlns="http://www.w3.org/2000/svg" xmlns:xlink="http://www.w3.org/1999/xlink" viewBox="0 0 18.2988 17.9385">
 <g>
  <rect height="17.9385" opacity="0" width="18.2988" x="0" y="0"/>
  <path d="M17.9297 8.96484C17.9297 13.9043 13.9131 17.9297 8.96484 17.9297C4.02539 17.9297 0 13.9043 0 8.96484C0 4.0166 4.02539 0 8.96484 0C13.9131 0 17.9297 4.0166 17.9297 8.96484ZM6.78516 11.8916C6.38086 11.8916 6.09961 12.1465 6.09961 12.5244C6.09961 12.9111 6.38086 13.1748 6.78516 13.1748L11.1709 13.1748C11.5752 13.1748 11.8652 12.9111 11.8652 12.5244C11.8652 12.1465 11.5752 11.8916 11.1709 11.8916ZM5.3877 8.87695C4.97461 8.87695 4.69336 9.13184 4.69336 9.51855C4.69336 9.91406 4.97461 10.1689 5.3877 10.1689L12.5771 10.1689C12.9814 10.1689 13.2627 9.91406 13.2627 9.51855C13.2627 9.13184 12.9814 8.87695 12.5771 8.87695ZM4.04297 5.87988C3.63867 5.87988 3.34863 6.13477 3.34863 6.52148C3.34863 6.9082 3.63867 7.16309 4.04297 7.16309L13.9219 7.16309C14.3174 7.16309 14.6162 6.9082 14.6162 6.52148C14.6162 6.13477 14.3174 5.87988 13.9219 5.87988Z" fill="white" fill-opacity="0.85"/>
 </g>
</svg>
